<svg xmlns="http://www.w3.org/2000/svg" viewBox="0 0 1600 140" preserveAspectRatio="none">
  <defs>
    <linearGradient id="stroke" x1="0" x2="1">
      <stop offset="0" stop-color="#1ce5ff"/>
      <stop offset=".35" stop-color="#7b7bff"/>
      <stop offset=".7" stop-color="#d44cff"/>
      <stop offset="1" stop-color="#1ce5ff"/>
    </linearGradient>
    <linearGradient id="glow" x1="0" x2="1">
      <stop offset="0" stop-color="#86fbff" stop-opacity=".9"/>
      <stop offset=".55" stop-color="#9da8ff" stop-opacity=".9"/>
      <stop offset="1" stop-color="#ff71f6" stop-opacity=".9"/>
    </linearGradient>
    <filter id="blur"><feGaussianBlur stdDeviation="8"/></filter>
  </defs>
  <path d="M14 14h320c24 0 42 12 54 30l6 10c6 10 14 14 28 14h760c15 0 23-4 30-13l10-13c11-14 29-28 53-28h311" stroke="url(#glow)" stroke-width="16" stroke-linecap="round" fill="none" opacity=".24" filter="url(#blur)"/>
  <path d="M20 22h308c22 0 37 9 47 24l10 16c10 16 25 24 49 24h730c27 0 42-8 53-24l8-12c11-17 28-28 51-28h304" stroke="url(#stroke)" stroke-width="4.2" stroke-linecap="round" fill="none" opacity=".92"/>
  <path d="M52 10h180" stroke="#ffffff" stroke-opacity=".15" stroke-width="1.5"/>
  <path d="M1360 12h180" stroke="#ffffff" stroke-opacity=".15" stroke-width="1.5"/>
  <g opacity=".8">
    <circle cx="310" cy="22" r="2" fill="#8ff7ff"/><circle cx="1188" cy="19" r="2" fill="#d68cff"/>
  </g>
</svg>